<svg id="Ebene_1" data-name="Ebene 1" xmlns="http://www.w3.org/2000/svg" viewBox="0 0 154.83 119.83"><defs><style>.cls-1{fill:#1d1d1b;stroke:#000;stroke-miterlimit:10;stroke-width:0.5px;}.cls-2{fill:#fff;fill-rule:evenodd;}</style></defs><title>Zeichenfläche 1</title><rect class="cls-1" x="4" y="2.33" width="144.17" height="111.67" rx="19.64" ry="19.64"/><path class="cls-2" d="M29.19,47.14c-6.27,0-10.83-3.5-10.83-11.85V30.16c0-8.36,4.56-11.85,10.83-11.85S40,21.8,40,30.16v5.13c0,8.36-4.56,11.85-10.83,11.85m5.51-17c0-5-1.79-7.25-5.51-7.25s-5.51,2.24-5.51,7.25v5.13c0,5,1.79,7.26,5.51,7.26s5.51-2.24,5.51-7.26Z"/><path class="cls-2" d="M53.61,36.31c-1,0-2.51-.11-3.38-.15v9.91a.73.73,0,0,1-.72.76h-3.8a.76.76,0,0,1-.76-.76V19.94c0-.76.46-1,1.22-1.14a51.93,51.93,0,0,1,7.45-.49c5.85,0,10.94,2.05,10.94,8.77v.34c0,6.72-5.09,8.89-10.94,8.89m5.7-9.23c0-3.19-1.9-4.41-5.7-4.41-.8,0-2.7.08-3.38.15v9c.61,0,2.74.11,3.38.11,4.1,0,5.7-1.52,5.7-4.56Z"/><path class="cls-2" d="M84.72,46.61a35.84,35.84,0,0,1-7.22.53c-4.94,0-8.77-1.33-8.77-7.79V26.09c0-6.46,3.84-7.79,8.77-7.79a35.76,35.76,0,0,1,7.22.53c.57.08.76.26.76.8v2.43a.76.76,0,0,1-.76.76H77c-2.2,0-3,.76-3,3.27v4.1H84.27A.76.76,0,0,1,85,31v2.74a.76.76,0,0,1-.76.76H74v4.9c0,2.51.8,3.27,3,3.27h7.75a.76.76,0,0,1,.76.76v2.43c0,.53-.19.72-.76.8"/><path class="cls-2" d="M110.44,46.84h-3.84a2,2,0,0,1-2.32-1.37L95.86,27c-.11-.23-.23-.3-.34-.3s-.19.08-.19.3V46.08a.73.73,0,0,1-.72.76H91.37a.76.76,0,0,1-.76-.76V20.13a1.52,1.52,0,0,1,1.52-1.52h4.1c.8,0,1.22.23,1.67,1.22l8.85,19.53c.08.19.19.3.3.3s.19-.11.19-.34v-20a.7.7,0,0,1,.72-.72h3.27a.7.7,0,0,1,.72.72v26a1.52,1.52,0,0,1-1.52,1.52"/><path class="cls-2" d="M26.47,87.94a39.75,39.75,0,0,1-6.57-.42c-1.25-.23-1.82-.65-1.82-2.05V61.54c0-1.37.49-1.86,1.71-2.05a47.22,47.22,0,0,1,6.34-.38c6.88,0,11.7,2,11.7,7.71v.76a6,6,0,0,1-3.5,5.74A5.84,5.84,0,0,1,38,79.09v.65c0,6-4.48,8.21-11.55,8.21M32.7,67.12c0-2.66-1.71-3.65-6.57-3.65-.91,0-2,0-2.77.08v7.71h4.82c3.53,0,4.52-1.67,4.52-3.61Zm.15,12c0-2.09-1.1-4-4.67-4H23.36V83.5c.91,0,2.32.08,3.11.08,4.86,0,6.38-1.25,6.38-3.91Z"/><path class="cls-2" d="M62.37,87.64h-4a.8.8,0,0,1-.72-.65l-1.75-7.22H47.14L45.39,87a.8.8,0,0,1-.72.65h-4A.65.65,0,0,1,40,87a1.65,1.65,0,0,0,0-.19L46.22,63c.91-3.53,3.65-3.87,5.28-3.87s4.37.34,5.28,3.87L63,86.8a1.65,1.65,0,0,0,0,.19.65.65,0,0,1-.68.65M52.11,64.16c-.11-.46-.23-.61-.61-.61s-.49.15-.61.61L48.16,75.44h6.69Z"/><path class="cls-2" d="M81.21,63.82H74.56V86.88a.76.76,0,0,1-.76.76H70a.76.76,0,0,1-.76-.76V63.82H62.63a.7.7,0,0,1-.76-.68v-3a.73.73,0,0,1,.76-.72H81.21a.73.73,0,0,1,.76.72v3a.7.7,0,0,1-.76.68"/><path class="cls-2" d="M94.51,87.94c-6.27,0-10.83-3.5-10.83-11.85V71c0-8.36,4.56-11.85,10.83-11.85S105.33,62.6,105.33,71v5.13c0,8.36-4.56,11.85-10.83,11.85M100,71c0-5-1.78-7.25-5.51-7.25S89,65.95,89,71v5.13c0,5,1.79,7.26,5.51,7.26S100,81.1,100,76.09Z"/><path class="cls-2" d="M130.1,87.64h-3.84a2,2,0,0,1-2.32-1.37l-8.43-18.5c-.12-.23-.23-.3-.34-.3s-.19.08-.19.3V86.88a.73.73,0,0,1-.72.76H111a.76.76,0,0,1-.76-.76V60.93a1.52,1.52,0,0,1,1.52-1.52h4.1c.8,0,1.22.23,1.67,1.22l8.85,19.53c.08.19.19.3.3.3s.19-.11.19-.34v-20a.7.7,0,0,1,.72-.72h3.27a.7.7,0,0,1,.72.72v26a1.52,1.52,0,0,1-1.52,1.52"/><path class="cls-2" d="M131.64,101.29H41.23a1.91,1.91,0,0,0-1.84-1.39H19.92a1.92,1.92,0,1,0,0,3.83H39.39a1.91,1.91,0,0,0,1.84-1.39h90.4Z"/></svg>